<svg xmlns="http://www.w3.org/2000/svg" width="3840" height="2160" viewBox="0 0 3840 2160">
  <title>Lyra Enterprise</title>
  <desc>Flat angular corporate wallpaper for Lyra OS</desc>
  <rect width="3840" height="2160" fill="@ENT_BG@"/>
  <g fill="none" stroke="@ENT_BORDER@" stroke-width="2" opacity="0.46">
    <path d="M0 310H920L1280 670H2140L2500 310H3840"/>
    <path d="M0 720H640L1050 1130H1950L2320 760H3840"/>
    <path d="M0 1650H760L1170 1240H2110L2520 1650H3840"/>
    <path d="M0 1980H1120L1450 1650H2240L2570 1980H3840"/>
  </g>
  <g fill="@ENT_SURFACE@" opacity="0.72">
    <path d="M0 0h1210L790 420H0z"/>
    <path d="M3840 2160H2580l430-430h830z"/>
  </g>
  <g transform="translate(3300 1650) scale(2)" opacity="@ENT_WATERMARK_OPACITY@">
    <defs>
      <linearGradient id="lyraMark" gradientUnits="userSpaceOnUse" x1="60" y1="0" x2="210" y2="200">
        <stop offset="0%" stop-color="@ENT_BRAND_START@"/>
        <stop offset="100%" stop-color="@ENT_BRAND_END@"/>
      </linearGradient>
    </defs>
    <path fill="url(#lyraMark)" d="M104 190A140 140 0 0 0 199 56 96 96 0 0 1 104 190Z"/>
    <path fill="none" stroke="url(#lyraMark)" stroke-width="18" stroke-linecap="round" stroke-linejoin="round"
          d="M150 14C118 14 96 34 92 62L92 150C92 166 86 176 76 180 68 183 62 180 60 174"/>
    <g stroke="url(#lyraMark)" stroke-width="4" stroke-linecap="round">
      <path d="M116 46v70M130 46v70M144 46v70M158 46v70"/>
    </g>
    <path fill="url(#lyraMark)" d="M196 18l4 14 14 4-14 4-4 14-4-14-14-4 14-4Z"/>
  </g>
</svg>
